ffmpeg started on 2016-12-08 at 02:00:27
Report written to "Output/x264/results/ffmpeg/crowd_run_2160p50slower6000k.log"
Command line:
Tools/ffmpeg/ffmpeg -benchmark -y -i Input/y4m/crowd_run_2160p50.y4m -c:v libx264 -preset slower -b:v 6000k -an Output/x264/encoded/crowd_run_2160p50slower6000k.mkv
ffmpeg version N-82227-gdb23fde Copyright (c) 2000-2016 the FFmpeg developers
  built with gcc 5.4.0 (Ubuntu 5.4.0-6ubuntu1~16.04.2) 20160609
  configuration: --prefix=/home/jaroslav/ffmpeg_build --pkg-config-flags=--static --extra-cflags=-I/home/jaroslav/ffmpeg_build/include --extra-ldflags=-L/home/jaroslav/ffmpeg_build/lib --bindir=/home/jaroslav/bin --enable-gpl --enable-libass --enable-libfdk-aac --enable-libfreetype --enable-libmp3lame --enable-libopus --enable-libtheora --enable-libvorbis --enable-libvpx --enable-libx264 --enable-libx265 --enable-nvenc --enable-libmfx --enable-libxvid --enable-libgsm --enable-libopencore-amrnb --enable-version3 --enable-nonfree
  libavutil      55. 35.100 / 55. 35.100
  libavcodec     57. 66.101 / 57. 66.101
  libavformat    57. 57.100 / 57. 57.100
  libavdevice    57.  2.100 / 57.  2.100
  libavfilter     6. 66.100 /  6. 66.100
  libswscale      4.  3.100 /  4.  3.100
  libswresample   2.  4.100 /  2.  4.100
  libpostproc    54.  2.100 / 54.  2.100
Input #0, yuv4mpegpipe, from 'Input/y4m/crowd_run_2160p50.y4m':
  Duration: 00:00:10.00, start: 0.000000, bitrate: 4976642 kb/s
    Stream #0:0: Video: rawvideo (I420 / 0x30323449), yuv420p(progressive), 3840x2160, SAR 1:1 DAR 16:9, 50 fps, 50 tbr, 50 tbn, 50 tbc
[libx264 @ 0x32e21c0] using SAR=1/1
[libx264 @ 0x32e21c0] DPB size (8 frames, 259200 mbs) > level limit (5 frames, 184320 mbs)
[libx264 @ 0x32e21c0] using cpu capabilities: MMX2 SSE2Fast SSSE3 SSE4.2 AVX FMA3 AVX2 LZCNT BMI2
[libx264 @ 0x32e21c0] profile High, level 5.2
[libx264 @ 0x32e21c0] 264 - core 148 - H.264/MPEG-4 AVC codec - Copyleft 2003-2016 - http://www.videolan.org/x264.html - options: cabac=1 ref=8 deblock=1:0:0 analyse=0x3:0x133 me=umh subme=9 psy=1 psy_rd=1.00:0.00 mixed_ref=1 me_range=16 chroma_me=1 trellis=2 8x8dct=1 cqm=0 deadzone=21,11 fast_pskip=1 chroma_qp_offset=-2 threads=6 lookahead_threads=1 sliced_threads=0 nr=0 decimate=1 interlaced=0 bluray_compat=0 constrained_intra=0 bframes=3 b_pyramid=2 b_adapt=2 b_bias=0 direct=3 weightb=1 open_gop=0 weightp=2 keyint=250 keyint_min=25 scenecut=40 intra_refresh=0 rc_lookahead=60 rc=abr mbtree=1 bitrate=6000 ratetol=1.0 qcomp=0.60 qpmin=0 qpmax=69 qpstep=4 ip_ratio=1.40 aq=1:1.00
Output #0, matroska, to 'Output/x264/encoded/crowd_run_2160p50slower6000k.mkv':
  Metadata:
    encoder         : Lavf57.57.100
    Stream #0:0: Video: h264 (libx264) (H264 / 0x34363248), yuv420p, 3840x2160 [SAR 1:1 DAR 16:9], q=-1--1, 6000 kb/s, 50 fps, 1k tbn, 50 tbc
    Metadata:
      encoder         : Lavc57.66.101 libx264
    Side data:
      cpb: bitrate max/min/avg: 0/0/6000000 buffer size: 0 vbv_delay: -1
Stream mapping:
  Stream #0:0 -> #0:0 (rawvideo (native) -> h264 (libx264))
Press [q] to stop, [?] for help
frame=   19 fps=0.0 q=0.0 size=       0kB time=00:00:00.00 bitrate=N/A speed=   0x    frame=   32 fps= 31 q=0.0 size=       0kB time=00:00:00.00 bitrate=N/A speed=   0x    frame=   43 fps= 28 q=0.0 size=       0kB time=00:00:00.00 bitrate=N/A speed=   0x    frame=   50 fps= 22 q=0.0 size=       0kB time=00:00:00.00 bitrate=N/A speed=   0x    frame=   58 fps= 21 q=0.0 size=       0kB time=00:00:00.00 bitrate=N/A speed=   0x    frame=   66 fps= 20 q=0.0 size=       0kB time=00:00:00.00 bitrate=N/A speed=   0x    frame=   67 fps= 11 q=0.0 size=       0kB time=00:00:00.00 bitrate=N/A speed=   0x    frame=   72 fps=9.9 q=39.0 size=       1kB time=-00:00:00.01 bitrate=N/A speed=N/A    frame=   74 fps=9.5 q=42.0 size=       1kB time=00:00:00.02 bitrate= 280.4kbits/s speed=0.00271x    frame=   76 fps=9.0 q=55.0 size=       1kB time=00:00:00.06 bitrate=  96.5kbits/s speed=0.00723x    frame=   80 fps=8.8 q=54.0 size=       1kB time=00:00:00.14 bitrate=  41.8kbits/s speed=0.0155x    frame=   81 fps=8.4 q=54.0 size=       1kB time=00:00:00.16 bitrate=  36.6kbits/s speed=0.0167x    frame=   83 fps=8.1 q=54.0 size=       1kB time=00:00:00.20 bitrate=  29.3kbits/s speed=0.0196x    frame=   86 fps=7.9 q=54.0 size=       1kB time=00:00:00.26 bitrate=  22.6kbits/s speed=0.0239x    frame=   87 fps=7.5 q=53.0 size=       1kB time=00:00:00.28 bitrate=  21.0kbits/s speed=0.0243x    frame=   91 fps=7.3 q=53.0 size=       1kB time=00:00:00.36 bitrate=  16.3kbits/s speed=0.0291x    frame=   93 fps=7.1 q=53.0 size=       1kB time=00:00:00.40 bitrate=  14.7kbits/s speed=0.0307x    frame=   97 fps=7.0 q=53.0 size=       1kB time=00:00:00.48 bitrate=  12.2kbits/s speed=0.0347x    frame=   99 fps=6.6 q=53.0 size=       1kB time=00:00:00.52 bitrate=  11.3kbits/s speed=0.035x    frame=  103 fps=6.6 q=53.0 size=       1kB time=00:00:00.60 bitrate=   9.8kbits/s speed=0.0386x    frame=  106 fps=6.5 q=53.0 size=       1kB time=00:00:00.66 bitrate=   8.9kbits/s speed=0.0408x    frame=  108 fps=6.4 q=52.0 size=       1kB time=00:00:00.70 bitrate=   8.4kbits/s speed=0.0417x    frame=  110 fps=6.2 q=52.0 size=       1kB time=00:00:00.74 bitrate=   7.9kbits/s speed=0.042x    frame=  113 fps=6.2 q=52.0 size=       1kB time=00:00:00.80 bitrate=   7.4kbits/s speed=0.0437x    frame=  116 fps=6.2 q=52.0 size=       1kB time=00:00:00.86 bitrate=   6.8kbits/s speed=0.0457x    frame=  118 fps=5.9 q=52.0 size=       1kB time=00:00:00.90 bitrate=   6.5kbits/s speed=0.0453x    frame=  121 fps=5.9 q=52.0 size=       1kB time=00:00:00.96 bitrate=   6.1kbits/s speed=0.0466x    frame=  125 fps=5.8 q=52.0 size=       1kB time=00:00:01.04 bitrate=   5.7kbits/s speed=0.0481x    frame=  127 fps=5.7 q=52.0 size=       1kB time=00:00:01.08 bitrate=   5.4kbits/s speed=0.0484x    frame=  131 fps=5.6 q=52.0 size=       1kB time=00:00:01.16 bitrate=   5.1kbits/s speed=0.0499x    frame=  135 fps=5.5 q=52.0 size=       1kB time=00:00:01.24 bitrate=   4.7kbits/s speed=0.0507x    frame=  139 fps=5.4 q=51.0 size=       1kB time=00:00:01.32 bitrate=   4.5kbits/s speed=0.0517x    frame=  142 fps=5.4 q=51.0 size=       1kB time=00:00:01.38 bitrate=   4.3kbits/s speed=0.0528x    frame=  144 fps=5.4 q=51.0 size=       1kB time=00:00:01.42 bitrate=   4.1kbits/s speed=0.0531x    frame=  146 fps=5.3 q=51.0 size=       1kB time=00:00:01.46 bitrate=   4.0kbits/s speed=0.0534x    frame=  147 fps=5.3 q=51.0 size=       1kB time=00:00:01.48 bitrate=   4.0kbits/s speed=0.053x    frame=  151 fps=5.3 q=51.0 size=       1kB time=00:00:01.56 bitrate=   3.8kbits/s speed=0.0545x    frame=  153 fps=5.2 q=51.0 size=       1kB time=00:00:01.60 bitrate=   3.7kbits/s speed=0.0548x    frame=  155 fps=5.2 q=51.0 size=       1kB time=00:00:01.64 bitrate=   3.6kbits/s speed=0.0546x    frame=  159 fps=5.1 q=51.0 size=       1kB time=00:00:01.72 bitrate=   3.4kbits/s speed=0.0556x    frame=  162 fps=5.1 q=51.0 size=       1kB time=00:00:01.78 bitrate=   3.3kbits/s speed=0.0561x    frame=  164 fps=5.1 q=51.0 size=       1kB time=00:00:01.82 bitrate=   3.2kbits/s speed=0.0562x    frame=  167 fps=5.0 q=51.0 size=       1kB time=00:00:01.88 bitrate=   3.1kbits/s speed=0.0567x    frame=  170 fps=5.0 q=51.0 size=       1kB time=00:00:01.94 bitrate=   3.0kbits/s speed=0.0573x    frame=  172 fps=5.0 q=51.0 size=       1kB time=00:00:01.98 bitrate=   3.0kbits/s speed=0.0575x    frame=  174 fps=5.0 q=51.0 size=       1kB time=00:00:02.02 bitrate=   2.9kbits/s speed=0.0577x    frame=  177 fps=4.9 q=51.0 size=       1kB time=00:00:02.08 bitrate=   2.8kbits/s speed=0.0582x    frame=  179 fps=4.9 q=51.0 size=       1kB time=00:00:02.12 bitrate=   2.8kbits/s speed=0.0581x    frame=  183 fps=4.9 q=51.0 size=       1kB time=00:00:02.20 bitrate=   2.7kbits/s speed=0.0587x    frame=  185 fps=4.9 q=51.0 size=       1kB time=00:00:02.24 bitrate=   2.6kbits/s speed=0.0588x    frame=  188 fps=4.8 q=51.0 size=       1kB time=00:00:02.30 bitrate=   2.6kbits/s speed=0.0591x    frame=  191 fps=4.8 q=51.0 size=       1kB time=00:00:02.36 bitrate=   2.5kbits/s speed=0.0595x    frame=  193 fps=4.8 q=51.0 size=       1kB time=00:00:02.40 bitrate=   2.5kbits/s speed=0.0597x    frame=  195 fps=4.8 q=51.0 size=       1kB time=00:00:02.44 bitrate=   2.4kbits/s speed=0.0598x    frame=  197 fps=4.7 q=51.0 size=       1kB time=00:00:02.48 bitrate=   2.4kbits/s speed=0.0597x    frame=  201 fps=4.8 q=51.0 size=       1kB time=00:00:02.56 bitrate=   2.3kbits/s speed=0.0608x    frame=  202 fps=4.7 q=51.0 size=       1kB time=00:00:02.58 bitrate=   2.3kbits/s speed=0.0605x    frame=  203 fps=4.7 q=51.0 size=       1kB time=00:00:02.60 bitrate=   2.3kbits/s speed=0.0601x    frame=  207 fps=4.7 q=50.0 size=       1kB time=00:00:02.68 bitrate=   2.2kbits/s speed=0.0609x    frame=  210 fps=4.7 q=50.0 size=       1kB time=00:00:02.74 bitrate=   2.1kbits/s speed=0.0607x    frame=  212 fps=4.6 q=50.0 size=       1kB time=00:00:02.78 bitrate=   2.1kbits/s speed=0.0609x    frame=  216 fps=4.7 q=50.0 size=       1kB time=00:00:02.86 bitrate=   2.1kbits/s speed=0.0619x    frame=  217 fps=4.6 q=50.0 size=       1kB time=00:00:02.88 bitrate=   2.0kbits/s speed=0.0613x    frame=  219 fps=4.6 q=50.0 size=       1kB time=00:00:02.92 bitrate=   2.0kbits/s speed=0.0611x    frame=  222 fps=4.6 q=50.0 size=       1kB time=00:00:02.98 bitrate=   2.0kbits/s speed=0.0617x    frame=  225 fps=4.6 q=50.0 size=       1kB time=00:00:03.04 bitrate=   1.9kbits/s speed=0.0621x    frame=  226 fps=4.6 q=50.0 size=       1kB time=00:00:03.06 bitrate=   1.9kbits/s speed=0.0618x    frame=  229 fps=4.6 q=50.0 size=       1kB time=00:00:03.12 bitrate=   1.9kbits/s speed=0.0621x    frame=  232 fps=4.6 q=50.0 size=       1kB time=00:00:03.18 bitrate=   1.9kbits/s speed=0.0625x    frame=  234 fps=4.5 q=50.0 size=       1kB time=00:00:03.22 bitrate=   1.8kbits/s speed=0.0626x    frame=  236 fps=4.5 q=50.0 size=       1kB time=00:00:03.26 bitrate=   1.8kbits/s speed=0.0625x    frame=  237 fps=4.5 q=50.0 size=       1kB time=00:00:03.28 bitrate=   1.8kbits/s speed=0.0622x    frame=  241 fps=4.5 q=50.0 size=       1kB time=00:00:03.36 bitrate=   1.8kbits/s speed=0.0629x    frame=  243 fps=4.5 q=50.0 size=       1kB time=00:00:03.40 bitrate=   1.7kbits/s speed=0.0628x    frame=  245 fps=4.5 q=50.0 size=       1kB time=00:00:03.44 bitrate=   1.7kbits/s speed=0.0628x    frame=  248 fps=4.5 q=50.0 size=       1kB time=00:00:03.50 bitrate=   1.7kbits/s speed=0.0632x    frame=  250 fps=4.5 q=50.0 size=       1kB time=00:00:03.54 bitrate=   1.7kbits/s speed=0.0633x    frame=  251 fps=4.4 q=50.0 size=       1kB time=00:00:03.56 bitrate=   1.7kbits/s speed=0.0631x    frame=  253 fps=4.4 q=50.0 size=       1kB time=00:00:03.60 bitrate=   1.6kbits/s speed=0.0631x    frame=  256 fps=4.4 q=50.0 size=       1kB time=00:00:03.66 bitrate=   1.6kbits/s speed=0.0633x    frame=  260 fps=4.4 q=50.0 size=       1kB time=00:00:03.74 bitrate=   1.6kbits/s speed=0.0637x    frame=  262 fps=4.4 q=50.0 size=       1kB time=00:00:03.78 bitrate=   1.6kbits/s speed=0.0634x    frame=  266 fps=4.4 q=50.0 size=       1kB time=00:00:03.86 bitrate=   1.5kbits/s speed=0.0642x    frame=  267 fps=4.4 q=50.0 size=       1kB time=00:00:03.88 bitrate=   1.5kbits/s speed=0.0639x    frame=  269 fps=4.4 q=50.0 size=       1kB time=00:00:03.92 bitrate=   1.5kbits/s speed=0.0639x    frame=  271 fps=4.4 q=50.0 size=       1kB time=00:00:03.96 bitrate=   1.5kbits/s speed=0.0638x    frame=  275 fps=4.4 q=50.0 size=       1kB time=00:00:04.04 bitrate=   1.5kbits/s speed=0.0643x    frame=  277 fps=4.3 q=50.0 size=       1kB time=00:00:04.08 bitrate=   1.4kbits/s speed=0.064x    frame=  279 fps=4.3 q=50.0 size=       1kB time=00:00:04.12 bitrate=   1.4kbits/s speed=0.0641x    frame=  282 fps=4.3 q=50.0 size=       1kB time=00:00:04.18 bitrate=   1.4kbits/s speed=0.0641x    frame=  285 fps=4.3 q=50.0 size=       1kB time=00:00:04.24 bitrate=   1.4kbits/s speed=0.0643x    frame=  286 fps=4.3 q=50.0 size=       1kB time=00:00:04.26 bitrate=   1.4kbits/s speed=0.0641x    frame=  290 fps=4.3 q=50.0 size=       1kB time=00:00:04.34 bitrate=   1.4kbits/s speed=0.0644x    frame=  292 fps=4.3 q=50.0 size=       1kB time=00:00:04.38 bitrate=   1.3kbits/s speed=0.0645x    frame=  294 fps=4.3 q=50.0 size=       1kB time=00:00:04.42 bitrate=   1.3kbits/s speed=0.0644x    frame=  298 fps=4.3 q=50.0 size=       1kB time=00:00:04.50 bitrate=   1.3kbits/s speed=0.0648x    frame=  300 fps=4.3 q=50.0 size=       1kB time=00:00:04.54 bitrate=   1.3kbits/s speed=0.0647x    frame=  301 fps=4.2 q=50.0 size=       1kB time=00:00:04.56 bitrate=   1.3kbits/s speed=0.0644x    frame=  305 fps=4.3 q=50.0 size=       1kB time=00:00:04.64 bitrate=   1.3kbits/s speed=0.0647x    frame=  307 fps=4.2 q=50.0 size=       1kB time=00:00:04.68 bitrate=   1.3kbits/s speed=0.0648x    frame=  309 fps=4.2 q=50.0 size=       1kB time=00:00:04.72 bitrate=   1.2kbits/s speed=0.0645x    frame=  313 fps=4.2 q=50.0 size=       1kB time=00:00:04.80 bitrate=   1.2kbits/s speed=0.0648x    frame=  316 fps=4.2 q=47.0 size=       1kB time=00:00:04.86 bitrate=   1.2kbits/s speed=0.065x    frame=  318 fps=4.2 q=50.0 size=       1kB time=00:00:04.90 bitrate=   1.2kbits/s speed=0.065x    frame=  321 fps=4.2 q=50.0 size=    3762kB time=00:00:04.96 bitrate=6212.0kbits/s speed=0.0652x    frame=  327 fps=4.3 q=51.0 size=    3762kB time=00:00:05.08 bitrate=6065.3kbits/s speed=0.0661x    frame=  330 fps=4.3 q=51.0 size=    3762kB time=00:00:05.14 bitrate=5994.5kbits/s speed=0.0663x    frame=  333 fps=4.3 q=51.0 size=    3762kB time=00:00:05.20 bitrate=5925.4kbits/s speed=0.0665x    frame=  334 fps=4.2 q=51.0 size=    3762kB time=00:00:05.22 bitrate=5902.7kbits/s speed=0.0662x    frame=  339 fps=4.3 q=51.0 size=    3762kB time=00:00:05.32 bitrate=5791.7kbits/s speed=0.0668x    frame=  340 fps=4.2 q=51.0 size=    3762kB time=00:00:05.34 bitrate=5770.1kbits/s speed=0.0662x    frame=  345 fps=4.2 q=51.0 size=    3762kB time=00:00:05.44 bitrate=5664.0kbits/s speed=0.0666x    frame=  348 fps=4.2 q=51.0 size=    3762kB time=00:00:05.50 bitrate=5602.2kbits/s speed=0.0665x    frame=  349 fps=4.2 q=51.0 size=    3762kB time=00:00:05.52 bitrate=5581.9kbits/s speed=0.0663x    frame=  352 fps=4.2 q=51.0 size=    3762kB time=00:00:05.58 bitrate=5521.9kbits/s speed=0.0665x    frame=  355 fps=4.2 q=51.0 size=    3762kB time=00:00:05.64 bitrate=5463.2kbits/s speed=0.0666x    frame=  357 fps=4.2 q=51.0 size=    3762kB time=00:00:05.68 bitrate=5424.7kbits/s speed=0.0664x    frame=  361 fps=4.2 q=51.0 size=    3762kB time=00:00:05.76 bitrate=5349.4kbits/s speed=0.0666x    frame=  364 fps=4.2 q=51.0 size=    3762kB time=00:00:05.82 bitrate=5294.3kbits/s speed=0.0666x    frame=  366 fps=4.2 q=51.0 size=    3762kB time=00:00:05.86 bitrate=5258.1kbits/s speed=0.0665x    frame=  370 fps=4.2 q=50.0 size=    3762kB time=00:00:05.94 bitrate=5187.3kbits/s speed=0.0669x    frame=  372 fps=4.2 q=50.0 size=    3762kB time=00:00:05.98 bitrate=5152.6kbits/s speed=0.0668x    frame=  373 fps=4.1 q=51.0 size=    3762kB time=00:00:06.00 bitrate=5135.5kbits/s speed=0.0666x    frame=  377 fps=4.2 q=50.0 size=    3762kB time=00:00:06.08 bitrate=5067.9kbits/s speed=0.0671x    frame=  379 fps=4.1 q=50.0 size=    3762kB time=00:00:06.12 bitrate=5034.8kbits/s speed=0.0669x    frame=  380 fps=4.1 q=50.0 size=    3762kB time=00:00:06.14 bitrate=5018.4kbits/s speed=0.0666x    frame=  385 fps=4.1 q=50.0 size=    3762kB time=00:00:06.24 bitrate=4938.0kbits/s speed=0.0671x    frame=  386 fps=4.1 q=50.0 size=    3762kB time=00:00:06.26 bitrate=4922.2kbits/s speed=0.0667x    frame=  389 fps=4.1 q=50.0 size=    3762kB time=00:00:06.32 bitrate=4875.5kbits/s speed=0.0669x    frame=  391 fps=4.1 q=50.0 size=    3762kB time=00:00:06.36 bitrate=4844.8kbits/s speed=0.0669x    frame=  393 fps=4.1 q=51.0 size=    3762kB time=00:00:06.40 bitrate=4814.5kbits/s speed=0.0668x    frame=  395 fps=4.1 q=50.0 size=    3762kB time=00:00:06.44 bitrate=4784.6kbits/s speed=0.0668x    frame=  398 fps=4.1 q=50.0 size=    3762kB time=00:00:06.50 bitrate=4740.5kbits/s speed=0.067x    frame=  399 fps=4.1 q=50.0 size=    3762kB time=00:00:06.52 bitrate=4725.9kbits/s speed=0.0668x    frame=  402 fps=4.1 q=51.0 size=    3762kB time=00:00:06.58 bitrate=4682.9kbits/s speed=0.067x    frame=  403 fps=4.1 q=51.0 size=    3762kB time=00:00:06.60 bitrate=4668.7kbits/s speed=0.0669x    frame=  406 fps=4.1 q=51.0 size=    3762kB time=00:00:06.66 bitrate=4626.6kbits/s speed=0.0668x    frame=  408 fps=4.1 q=51.0 size=    3762kB time=00:00:06.70 bitrate=4599.0kbits/s speed=0.0667x    frame=  413 fps=4.1 q=51.0 size=    3762kB time=00:00:06.80 bitrate=4531.4kbits/s speed=0.067x    frame=  415 fps=4.1 q=51.0 size=    3762kB time=00:00:06.84 bitrate=4504.9kbits/s speed=0.0668x    frame=  419 fps=4.1 q=51.0 size=    3762kB time=00:00:06.92 bitrate=4452.8kbits/s speed=0.0671x    frame=  422 fps=4.0 q=50.0 size=    3762kB time=00:00:06.98 bitrate=4414.5kbits/s speed=0.067x    frame=  425 fps=4.0 q=50.0 size=    3762kB time=00:00:07.04 bitrate=4376.9kbits/s speed=0.0671x    frame=  428 fps=4.0 q=50.0 size=    3762kB time=00:00:07.10 bitrate=4339.9kbits/s speed=0.067x    frame=  432 fps=4.0 q=50.0 size=    3762kB time=00:00:07.18 bitrate=4291.6kbits/s speed=0.067x    frame=  435 fps=4.0 q=50.0 size=    3762kB time=00:00:07.24 bitrate=4256.0kbits/s speed=0.0671x    frame=  437 fps=4.0 q=50.0 size=    3762kB time=00:00:07.28 bitrate=4232.6kbits/s speed=0.0672x    frame=  440 fps=4.0 q=50.0 size=    3762kB time=00:00:07.34 bitrate=4198.1kbits/s speed=0.0672x    frame=  442 fps=4.0 q=50.0 size=    3762kB time=00:00:07.38 bitrate=4175.3kbits/s speed=0.0672x    frame=  443 fps=4.0 q=50.0 size=    3762kB time=00:00:07.40 bitrate=4164.0kbits/s speed=0.0671x    frame=  446 fps=4.0 q=50.0 size=    3762kB time=00:00:07.46 bitrate=4130.5kbits/s speed=0.0673x    frame=  447 fps=4.0 q=50.0 size=    3762kB time=00:00:07.48 bitrate=4119.5kbits/s speed=0.0671x    frame=  450 fps=4.0 q=50.0 size=    3762kB time=00:00:07.54 bitrate=4086.7kbits/s speed=0.0673x    frame=  451 fps=4.0 q=50.0 size=    3762kB time=00:00:07.56 bitrate=4075.9kbits/s speed=0.0671x    frame=  455 fps=4.0 q=50.0 size=    3762kB time=00:00:07.64 bitrate=4033.2kbits/s speed=0.0672x    frame=  457 fps=4.0 q=50.0 size=    3762kB time=00:00:07.68 bitrate=4012.2kbits/s speed=0.0671x    frame=  459 fps=4.0 q=50.0 size=    3762kB time=00:00:07.72 bitrate=3991.4kbits/s speed=0.0671x    frame=  463 fps=4.0 q=50.0 size=    3762kB time=00:00:07.80 bitrate=3950.5kbits/s speed=0.0671x    frame=  466 fps=4.0 q=50.0 size=    3762kB time=00:00:07.86 bitrate=3920.4kbits/s speed=0.0672x    frame=  468 fps=4.0 q=50.0 size=    3762kB time=00:00:07.90 bitrate=3900.5kbits/s speed=0.0672x    frame=  471 fps=4.0 q=50.0 size=    3762kB time=00:00:07.96 bitrate=3871.1kbits/s speed=0.0671x    frame=  475 fps=4.0 q=50.0 size=    3762kB time=00:00:08.04 bitrate=3832.6kbits/s speed=0.0672x    frame=  478 fps=4.0 q=50.0 size=    3762kB time=00:00:08.10 bitrate=3804.2kbits/s speed=0.0672x    frame=  480 fps=4.0 q=50.0 size=    3762kB time=00:00:08.14 bitrate=3785.5kbits/s speed=0.0673x    frame=  483 fps=4.0 q=50.0 size=    3762kB time=00:00:08.20 bitrate=3757.8kbits/s speed=0.0672x    frame=  485 fps=4.0 q=50.0 size=    3762kB time=00:00:08.24 bitrate=3739.6kbits/s speed=0.0672x    frame=  487 fps=4.0 q=50.0 size=    3762kB time=00:00:08.28 bitrate=3721.5kbits/s speed=0.0672x    frame=  490 fps=4.0 q=50.0 size=    3762kB time=00:00:08.34 bitrate=3694.7kbits/s speed=0.0673x    frame=  492 fps=4.0 q=50.0 size=    3762kB time=00:00:08.38 bitrate=3677.1kbits/s speed=0.0673x    frame=  493 fps=3.9 q=50.0 size=    3762kB time=00:00:08.40 bitrate=3668.4kbits/s speed=0.0672x    frame=  497 fps=3.9 q=50.0 size=    3762kB time=00:00:08.48 bitrate=3633.8kbits/s speed=0.0673x    frame=  500 fps=3.9 q=50.0 size=    3762kB time=00:00:08.54 bitrate=3608.2kbits/s speed=0.0673x    frame=  500 fps=3.9 q=50.0 size=    3762kB time=00:00:08.54 bitrate=3608.2kbits/s speed=0.067x    frame=  500 fps=3.4 q=-1.0 Lsize=    7431kB time=00:00:09.94 bitrate=6123.7kbits/s speed=0.0681x    
video:7427kB audio:0kB subtitle:0kB other streams:0kB global headers:0kB muxing overhead: 0.058685%
bench: utime=549.988s
bench: maxrss=2534804kB
[libx264 @ 0x32e21c0] frame I:2     Avg QP:39.90  size:211277
[libx264 @ 0x32e21c0] frame P:134   Avg QP:49.16  size: 28304
[libx264 @ 0x32e21c0] frame B:364   Avg QP:50.37  size:  9311
[libx264 @ 0x32e21c0] consecutive B-frames:  0.4%  2.8% 14.4% 82.4%
[libx264 @ 0x32e21c0] mb I  I16..4: 30.4% 65.2%  4.4%
[libx264 @ 0x32e21c0] mb P  I16..4:  3.2%  4.0%  0.0%  P16..4: 27.9%  1.0%  2.5%  0.0%  0.0%    skip:61.5%
[libx264 @ 0x32e21c0] mb B  I16..4:  0.0%  0.0%  0.0%  B16..8: 27.9%  0.3%  0.0%  direct: 0.1%  skip:71.6%  L0:39.0% L1:61.0% BI: 0.1%
[libx264 @ 0x32e21c0] final ratefactor: 42.39
[libx264 @ 0x32e21c0] 8x8 transform intra:56.7% inter:94.1%
[libx264 @ 0x32e21c0] direct mvs  spatial:98.9% temporal:1.1%
[libx264 @ 0x32e21c0] coded y,uvDC,uvAC intra: 12.7% 36.6% 6.9% inter: 0.7% 3.5% 0.0%
[libx264 @ 0x32e21c0] i16 v,h,dc,p: 43% 24%  4% 29%
[libx264 @ 0x32e21c0] i8 v,h,dc,ddl,ddr,vr,hd,vl,hu:  8%  4% 39%  8% 10%  9%  9%  7%  6%
[libx264 @ 0x32e21c0] i4 v,h,dc,ddl,ddr,vr,hd,vl,hu:  6%  4%  1% 14% 17% 15% 15% 12% 15%
[libx264 @ 0x32e21c0] i8c dc,h,v,p: 70% 14% 11%  5%
[libx264 @ 0x32e21c0] Weighted P-Frames: Y:0.7% UV:0.0%
[libx264 @ 0x32e21c0] ref P L0: 61.7%  1.2% 17.4%  5.0%  4.5%  3.9%  4.0%  2.2%  0.0%
[libx264 @ 0x32e21c0] ref B L0: 94.0%  3.3%  1.4%  0.5%  0.4%  0.3%  0.2%
[libx264 @ 0x32e21c0] ref B L1: 98.9%  1.1%
[libx264 @ 0x32e21c0] kb/s:6083.44
